# xmcd
#
# Track frame offsets:
#  150
#  15419
#  30016
#  44792
#  62929
#  84698
#  100833
#  116911
#  133034
#  153116
#  167853
#
# Disc length: 2421 seconds
#
# Revision: 0
# Processed by: cddbd v1.4PL0 Copyright (c) Steve Scherf et al.
# Submitted via: AltoMP3_Maker 3.0
#
DISCID=8a09730b
DTITLE=Jack Trice and the Road Dogs - 400 Miles of Bad Road
DYEAR=1900
DGENRE=
TTITLE0=Born With the Blues 
TTITLE1=400 Miles of Bad Road
TTITLE2=Everyday and Everynight 
TTITLE3=You'll Never Make Me Bleed
TTITLE4=No Footsteps 
TTITLE5=Hang'n By A Thread 
TTITLE6=Too Much (Of That Stuff) 
TTITLE7=Figure 8 Race 
TTITLE8=One Precious Moment 
TTITLE9=Too Good (To Be True) 
TTITLE10=Long Letter 
EXTD=
EXTT0=
EXTT1=
EXTT2=
EXTT3=
EXTT4=
EXTT5=
EXTT6=
EXTT7=
EXTT8=
EXTT9=
EXTT10=
PLAYORDER=
